# xmcd
#
# Track frame offsets:
#	150
#	13956
#	29793
#	40028
#	52500
#	68469
#	81466
#	87696
#	102868
#	114848
#	129759
#	149498
#	172795
#	192348
#	206294
#	225414
#
# Disc length: 3330 seconds
#
# Revision: 0
# Processed by: cddbd v1.5.1PL0 Copyright (c) Steve Scherf et al.
# Submitted via: dBpowerAMP V4.0
#
DISCID=c80d0010
DTITLE=Jeff Tweedy - Lounge Ax, Chicago,IL Disc2
DYEAR=1999
DGENRE=Country
TTITLE0=Red-Eyed And Blue
TTITLE1=I Got You
TTITLE2=Casino Queen
TTITLE3=(Was I) In Your Dreams
TTITLE4=I'm The Man Who Loves You
TTITLE5=Good Chinese Apple
TTITLE6=She's A Jar Rap
TTITLE7=Far, Far Away
TTITLE8=Someday Soon
TTITLE9=Down In The Willow Garden
TTITLE10=Passenger Side
TTITLE11=Gun
TTITLE12=The Lonely One
TTITLE13=When You Wake Up Feeling Old
TTITLE14=ELT
TTITLE15=California Stars
EXTD=
EXTT0=
EXTT1=
EXTT2=
EXTT3=
EXTT4=
EXTT5=
EXTT6=
EXTT7=
EXTT8=
EXTT9=
EXTT10=
EXTT11=
EXTT12=
EXTT13=
EXTT14=
EXTT15=
PLAYORDER=
